<svg id="Layer_1" enable-background="new 0 0 512.033 512.033" height="512" viewBox="0 0 512.033 512.033" width="512" xmlns="http://www.w3.org/2000/svg"><g><g><path d="m74.156 194.101c1.654 5.044 6.332 8.433 11.64 8.433h340.441c5.308 0 9.985-3.389 11.64-8.433 1.654-5.044-.109-10.544-4.387-13.688l-170.22-125.084c-4.339-3.188-10.169-3.188-14.507 0l-170.22 125.084c-4.278 3.144-6.041 8.644-4.387 13.688zm181.861-125.487 161.832 118.92h-323.664z"/><path d="m496.517 429.534h-7v-24.5c0-4.142-3.358-7.5-7.5-7.5h-34.5v-21.474c0-4.142-3.358-7.5-7.5-7.5s-7.5 3.358-7.5 7.5v21.474h-13v-98.5h13v45.231c0 4.142 3.358 7.5 7.5 7.5s7.5-3.358 7.5-7.5v-46.414c4.708-2.111 8-6.833 8-12.317v-18c0-5.484-3.292-10.206-8-12.317v-22.683h43.493c9.229 0 17.054-5.675 19.933-14.458 2.886-8.8-.067-18.026-7.523-23.505l-225.861-165.97c-12.885-9.469-30.199-9.469-43.084 0l-47.925 35.217c-3.338 2.453-4.056 7.147-1.603 10.484 2.454 3.338 7.147 4.055 10.485 1.603l47.926-35.218c7.571-5.563 17.747-5.563 25.319 0l225.861 165.971c3.262 2.397 2.472 5.768 2.152 6.744-.318.969-1.667 4.131-5.68 4.131h-469.986c-4.014 0-5.362-3.162-5.68-4.131-.32-.976-1.11-4.347 2.152-6.744l152.156-111.81c3.338-2.453 4.056-7.147 1.603-10.484-2.453-3.339-7.148-4.056-10.484-1.603l-152.157 111.811c-7.456 5.479-10.409 14.705-7.523 23.505 2.879 8.783 10.704 14.458 19.933 14.458h43.493v22.683c-4.708 2.111-8 6.833-8 12.317v18c0 5.484 3.292 10.206 8 12.317v99.683h-34.5c-4.142 0-7.5 3.358-7.5 7.5v24.5h-7c-8.547 0-15.5 6.953-15.5 15.5v30c0 8.547 6.953 15.5 15.5 15.5h48.5c4.142 0 7.5-3.358 7.5-7.5s-3.358-7.5-7.5-7.5h-48.5c-.276 0-.5-.224-.5-.5v-30c0-.276.224-.5.5-.5h481c.276 0 .5.224.5.5v30c0 .276-.224.5-.5.5h-400.731c-4.142 0-7.5 3.358-7.5 7.5s3.358 7.5 7.5 7.5h400.731c8.547 0 15.5-6.953 15.5-15.5v-30c0-8.548-6.954-15.501-15.5-15.501zm-92-32h-19v-98.5h19zm-47 0v-98.5h13v98.5zm-49 0v-99.683c4.708-2.111 8-6.833 8-12.317v-18c0-5.484-3.292-10.206-8-12.317v-22.683h34v22.683c-4.708 2.111-8 6.833-8 12.317v18c0 5.484 3.292 10.206 8 12.317v99.683zm-62 0v-98.5h19v98.5zm-28 0v-98.5h13v98.5zm-49 0v-99.683c4.708-2.111 8-6.833 8-12.317v-18c0-5.484-3.292-10.206-8-12.317v-22.683h34v22.683c-4.708 2.111-8 6.833-8 12.317v18c0 5.484 3.292 10.206 8 12.317v99.683zm-62 0v-98.5h19v98.5zm-36-113.5v-15h91v15zm36-30v-21.5h19v21.5zm34 45h13v98.5h-13zm105-45v-21.5h19v21.5zm55 15v15h-91v-15zm-21 30h13v98.5h-13zm105-45v-21.5h19v21.5zm55 15v15h-91v-15zm-8-15h-13v-21.5h13zm-62-21.5v21.5h-13v-21.5zm-77 21.5h-13v-21.5h13zm-62-21.5v21.5h-13v-21.5zm-77 21.5h-13v-21.5h13zm-62-21.5v21.5h-13v-21.5zm-13 66.5h13v98.5h-13zm-42 130.5v-17h437v17z"/><path d="m256.017 97.034c-20.678 0-37.5 16.822-37.5 37.5s16.822 37.5 37.5 37.5 37.5-16.822 37.5-37.5-16.823-37.5-37.5-37.5zm0 60c-12.407 0-22.5-10.093-22.5-22.5s10.093-22.5 22.5-22.5 22.5 10.093 22.5 22.5-10.094 22.5-22.5 22.5z"/></g></g></svg>